<svg xmlns="http://www.w3.org/2000/svg" viewBox="0 0 512 512">
  <defs>
    <linearGradient id="bg" x1="0%" y1="0%" x2="100%" y2="100%">
      <stop offset="0%" style="stop-color:#0EA5E9"/>
      <stop offset="100%" style="stop-color:#6366F1"/>
    </linearGradient>
  </defs>
  <!-- 圆角方盒 -->
  <rect x="32" y="32" width="448" height="448" rx="80" ry="80" fill="url(#bg)"/>
  <!-- 左花括号 { -->
  <path d="M180 160 Q180 200 160 220 Q140 240 140 256 Q140 272 160 292 Q180 312 180 352" 
        fill="none" stroke="white" stroke-width="28" stroke-linecap="round"/>
  <!-- 右花括号 } -->
  <path d="M332 160 Q332 200 352 220 Q372 240 372 256 Q372 272 352 292 Q332 312 332 352" 
        fill="none" stroke="white" stroke-width="28" stroke-linecap="round"/>
  <!-- 中间三条横线代表配置/变量 -->
  <rect x="210" y="222" width="92" height="12" rx="6" fill="white" opacity="0.9"/>
  <rect x="218" y="250" width="76" height="12" rx="6" fill="white" opacity="0.7"/>
  <rect x="210" y="278" width="92" height="12" rx="6" fill="white" opacity="0.9"/>
</svg>
